<?xml version="1.0" encoding="UTF-8"?>
<svg id="Layer_2" data-name="Layer 2" xmlns="http://www.w3.org/2000/svg" viewBox="0 0 501 501">
  <defs>
    <style>
      .cls-1 {
        fill: #fff;
      }

      .cls-2 {
        fill: #ed1b24;
        stroke: #000;
        stroke-miterlimit: 10;
      }
    </style>
  </defs>
  <g id="Layer_1-2" data-name="Layer 1">
    <g>
      <rect class="cls-2" x=".5" y=".5" width="500" height="500"/>
      <g>
        <g id="eyes">
          <path class="cls-1" d="M159.73,158.86c-18.25,0-33.1,14.85-33.1,33.1s14.85,33.1,33.1,33.1,33.1-14.85,33.1-33.1-14.85-33.1-33.1-33.1h0Z"/>
          <path class="cls-1" d="M350.99,158.86c-18.25,0-33.1,14.85-33.1,33.1s14.85,33.1,33.1,33.1,33.11-14.85,33.11-33.1-14.85-33.1-33.11-33.1h0Z"/>
          <path class="cls-1" d="M353.36,99.69h-193.44c-51.52,0-93.29,41.77-93.29,93.29s41.77,93.29,93.29,93.29h65.27s.01-7.61.01-9.48,1.86-3.48,3.86-3.48,17.19-.02,18.88-.02,3.75,1.25,3.75,3.5v9.48h6.12v-9.48c0-2.12,1.75-3.5,4.19-3.5h18.5c2.25,0,3.89,1.25,3.89,3.5s-.02,9.48-.02,9.48h68.98c50.79-.85,91.69-42.29,91.69-93.28s-40.91-92.42-91.69-93.28h0v-.02ZM159.73,255.3c-34.92,0-63.34-28.41-63.34-63.34s28.41-63.34,63.34-63.34,63.34,28.41,63.34,63.34-28.41,63.34-63.34,63.34ZM350.99,255.3c-34.92,0-63.34-28.41-63.34-63.34s28.41-63.34,63.34-63.34,63.34,28.41,63.34,63.34-28.41,63.34-63.34,63.34h0Z"/>
        </g>
        <g id="keyboard">
          <rect class="cls-1" x="225.17" y="292.74" width="26.53" height="26.53" rx="4.51" ry="4.51"/>
          <rect class="cls-1" x="257.82" y="292.92" width="26.53" height="26.53" rx="4.51" ry="4.51"/>
          <rect class="cls-1" x="290.44" y="292.92" width="26.53" height="26.53" rx="4.51" ry="4.51"/>
          <path class="cls-1" d="M363.95,314.64c0,2.46-1.83,4.45-4.08,4.45h-32.69c-2.26,0-4.08-1.99-4.08-4.45v-17.28c0-2.46,1.83-4.45,4.08-4.45h32.69c2.26,0,4.08,1.99,4.08,4.45v17.28Z"/>
          <rect class="cls-1" x="145.49" y="357.69" width="26.53" height="26.53" rx="4.51" ry="4.51"/>
          <rect class="cls-1" x="337.42" y="357.78" width="26.53" height="26.53" rx="4.51" ry="4.51"/>
          <rect class="cls-1" x="177.67" y="357.78" width="153.27" height="26.53" rx="4.51" ry="4.51"/>
          <rect class="cls-1" x="192.52" y="293.01" width="26.53" height="26.53" rx="4.51" ry="4.51"/>
          <rect class="cls-1" x="225.17" y="325.69" width="26.53" height="26.53" rx="4.51" ry="4.51"/>
          <rect class="cls-1" x="257.82" y="325.87" width="26.53" height="26.53" rx="4.51" ry="4.51"/>
          <rect class="cls-1" x="290.44" y="325.87" width="26.53" height="26.53" rx="4.51" ry="4.51"/>
          <path class="cls-1" d="M364,347.65c0,2.46-1.83,4.45-4.08,4.45h-32.69c-2.26,0-4.08-1.99-4.08-4.45v-17.28c0-2.46,1.83-4.45,4.08-4.45h32.69c2.26,0,4.08,1.99,4.08,4.45v17.28Z"/>
          <rect class="cls-1" x="192.73" y="325.69" width="26.53" height="26.53" rx="4.51" ry="4.51"/>
          <path class="cls-1" d="M186.35,314.91c0,2.46-1.83,4.45-4.08,4.45h-32.69c-2.26,0-4.08-1.99-4.08-4.45v-17.28c0-2.46,1.83-4.45,4.08-4.45h32.69c2.26,0,4.08,1.99,4.08,4.45v17.28Z"/>
          <path class="cls-1" d="M186.35,347.59c0,2.46-1.83,4.45-4.08,4.45h-32.69c-2.26,0-4.08-1.99-4.08-4.45v-17.28c0-2.46,1.83-4.45,4.08-4.45h32.69c2.26,0,4.08,1.99,4.08,4.45v17.28Z"/>
        </g>
      </g>
    </g>
  </g>
</svg>